<?xml version="1.0" encoding="UTF-8"?>
<svg viewBox="0 0 768.09 104.7" xmlns="http://www.w3.org/2000/svg">
  <g fill="#2563EB">
    <path fill-rule="evenodd" d="M86.38,13.84c2,0,3.62,1.62,3.62,3.62v72.74c0,7.58-5.79,13.79-13.18,14.48-.13.01-.26.02-.39.02H13.56c-.13,0-.26,0-.39-.02-7.39-.69-13.18-6.9-13.18-14.48V17.47c0-2,1.62-3.62,3.62-3.62h20.63c2,0,3.62,1.62,3.62,3.62v63.32c0,2,1.62,3.62,3.62,3.62h27c2,0,3.62-1.62,3.62-3.62V17.47c0-2,1.62-3.62,3.62-3.62h20.63Z"/>
    <rect x="32.62" y="0" width="24.77" height="71.32" rx="5" ry="5"/>
    <g>
      <path d="M165.95,57.41V18.91h21.97v37.74c0,7.45,3.73,11.46,9.55,11.46s9.75-4.01,9.75-11.46V18.91h21.97v38.5c0,20.54-13.18,29.81-31.62,29.81s-31.62-9.27-31.62-29.81Z"/>
      <path d="M238.75,18.91h22.93l24.65,36.21h.67V18.91h20.54v66.87h-22.93l-24.55-36.11h-.76v36.11h-20.54V18.91Z"/>
      <path d="M317.08,18.91h21.97v66.87h-21.97V18.91Z"/>
      <path d="M347.56,68.59h36.02c3.44,0,4.87-1.34,4.87-3.63,0-2.67-1.43-4.01-4.97-4.01h-15.95c-12.23,0-21.3-7.36-21.3-21.11s9.08-20.92,21.3-20.92h38.79v17.2h-34.39c-2.58,0-4.78.96-4.78,3.82s2.2,3.82,4.78,3.82h16.34c12.8,0,21.3,7.26,21.3,20.64s-8.5,21.4-21.3,21.4h-40.7v-17.2Z"/>
      <path d="M416.72,18.91h21.97v24.84h23.21v-24.84h21.97v66.87h-21.97v-24.84h-23.21v24.84h-21.97V18.91Z"/>
      <path d="M491.05,52.25c0-21.11,15.67-34.77,35.92-34.77s35.92,13.66,35.92,34.77-15.67,34.97-35.92,34.97-35.92-12.9-35.92-34.97ZM540.25,52.25c0-8.22-5.35-14.14-13.47-14.14s-13.47,5.92-13.47,14.14,5.35,14.24,13.47,14.24,13.47-5.92,13.47-14.24Z"/>
      <path d="M570.05,18.91h43.09c14.52,0,23.79,8.22,23.79,21.97,0,9.36-4.2,15.76-11.37,18.82l10.32,26.08h-23.21l-8.41-23.79h-13.85v23.79h-20.35V18.91ZM608.08,47.19c4.01,0,6.78-1.43,6.78-5.64s-2.77-5.45-6.78-5.45h-17.67v11.08h17.67Z"/>
      <path d="M659.85,36.11h-19.11v-17.2h60.19v17.2h-19.11v49.68h-21.97v-49.68Z"/>
      <path d="M706.09,68.59h36.02c3.44,0,4.87-1.34,4.87-3.63,0-2.67-1.43-4.01-4.97-4.01h-15.96c-12.23,0-21.3-7.36-21.3-21.11s9.08-20.92,21.3-20.92h38.79v17.2h-34.39c-2.58,0-4.78.96-4.78,3.82s2.2,3.82,4.78,3.82h16.34c12.8,0,21.3,7.26,21.3,20.64s-8.5,21.4-21.3,21.4h-40.7v-17.2Z"/>
    </g>
    <path fill-rule="evenodd" d="M147.13,61.57l-40.47,40.47c-2.99,2.99-8.09.87-8.09-3.35V17.75c0-4.22,5.11-6.34,8.09-3.35l40.47,40.47c1.85,1.85,1.85,4.85,0,6.7Z"/>
  </g>
</svg>