<?xml version="1.0" encoding="UTF-8"?>
<svg viewBox="0 0 148.52 104.7" xmlns="http://www.w3.org/2000/svg">
  <g fill="#2563EB">
    <path fill-rule="evenodd" d="M86.38,13.84c2,0,3.62,1.62,3.62,3.62v72.74c0,7.58-5.79,13.79-13.18,14.48-.13.01-.26.02-.39.02H13.56c-.13,0-.26,0-.39-.02-7.39-.69-13.18-6.9-13.18-14.48V17.47c0-2,1.62-3.62,3.62-3.62h20.63c2,0,3.62,1.62,3.62,3.62v63.32c0,2,1.62,3.62,3.62,3.62h27c2,0,3.62-1.62,3.62-3.62V17.47c0-2,1.62-3.62,3.62-3.62h20.63Z"/>
    <rect x="32.62" y="0" width="24.77" height="71.32" rx="5" ry="5"/>
    <path fill-rule="evenodd" d="M147.13,61.57l-40.47,40.47c-2.99,2.99-8.09.87-8.09-3.35V17.75c0-4.22,5.11-6.34,8.09-3.35l40.47,40.47c1.85,1.85,1.85,4.85,0,6.7Z"/>
  </g>
</svg>